<?xml version="1.0" encoding="UTF-8"?>
<svg width="390px" height="142px" viewBox="0 0 390 142" version="1.1" xmlns="http://www.w3.org/2000/svg" xmlns:xlink="http://www.w3.org/1999/xlink">
    <!-- Generator: Sketch 48.1 (47250) - http://www.bohemiancoding.com/sketch -->
    <title>Group</title>
    <desc>Created with Sketch.</desc>
    <defs></defs>
    <g id="Desktop" stroke="none" stroke-width="1" fill="none" fill-rule="evenodd" transform="translate(-136.000000, -130.000000)">
        <g id="Group" transform="translate(136.000000, 130.000000)">
            <path d="M30.1288684,65.9665532 C29.7622084,65.9665532 29.4030929,65.850234 29.1043329,65.6296809 C28.7346551,65.357766 28.4902151,64.9498936 28.4208062,64.4967021 L28.3091484,63.7625319 C28.2653907,63.4709787 28.2955684,63.1718723 28.3996818,62.8954255 C31.044764,55.8331915 29.2205173,47.9174468 23.7538129,42.7268936 C20.2652618,39.4140638 15.6963462,37.5907234 10.8905351,37.5907234 C8.28770177,37.5907234 5.76483955,38.1164255 3.39135733,39.154234 C3.12126622,39.2720638 2.825524,39.317383 2.53129066,39.2917021 L1.79193511,39.2191915 C1.33625066,39.175383 0.915270663,38.9502979 0.625563997,38.5952979 C0.334348441,38.2402979 0.195530663,37.7855957 0.24079733,37.3278723 C1.12500622,28.2836809 4.90175511,20.0099149 11.1606262,13.4008723 C17.3847929,6.82808511 25.3894484,2.62095745 34.3069818,1.23419149 C34.9376973,1.13902128 35.566904,1.39280851 35.9501618,1.89887234 C36.3334196,2.40644681 36.408864,3.08321277 36.1448084,3.66178723 L35.3149196,5.48059574 C32.7000151,12.5277234 34.5287884,20.4177872 39.9819129,25.593234 C43.470464,28.9060638 48.0393796,30.7294043 52.8451907,30.7294043 C55.4284084,30.7294043 57.933164,30.2112553 60.2900484,29.1885532 L62.0599751,28.2625319 C62.6227907,27.9664468 63.3017907,28.0057234 63.8283929,28.362234 C64.3549951,28.7187447 64.6431929,29.3350851 64.5783107,29.9695532 C63.6684507,38.9593617 59.8977373,47.1847872 53.6720618,53.7575745 C47.4116818,60.366617 39.3602507,64.5812979 30.3868884,65.9454043 C30.3023907,65.9605106 30.2148751,65.9665532 30.1288684,65.9665532 L30.1288684,65.9665532 Z M10.892044,34.1313617 C16.5865907,34.1313617 21.9989751,36.2930851 26.1333307,40.2177234 C32.090424,45.8720426 34.3944973,54.260617 32.2880884,62.0796809 C39.5217018,60.4935106 46.0084151,56.8256809 51.1673062,51.3798298 C56.1285329,46.1409362 59.386224,39.7554681 60.6929218,32.7597021 C58.1866573,33.7098936 55.5521373,34.1902766 52.8466996,34.1902766 L52.8466996,34.1902766 C47.1521529,34.1902766 41.7382596,32.0285532 37.6054129,28.1039149 C31.4008618,22.2139362 29.1586529,13.3600851 31.7343262,5.26910638 C24.8266329,6.94742553 18.6311351,10.5427447 13.6699084,15.7816383 C8.51252622,21.2274894 5.19749733,27.9060213 4.00094844,35.2235532 C6.21599733,34.4984468 8.52610622,34.1313617 10.892044,34.1313617 L10.892044,34.1313617 Z" id="Shape" fill="#FFFFFF" transform="translate(32.409866, 33.590513) scale(-1, 1) translate(-32.409866, -33.590513) "></path>
            <ellipse id="Oval" fill="#FFFFFF" transform="translate(31.046400, 40.427200) scale(-1, 1) rotate(-46.523422) translate(-31.046400, -40.427200) " cx="31.0464004" cy="40.4272003" rx="2.32232176" ry="2.32501427"></ellipse>
            <path d="M54.1344424,36.9607872 C53.677249,36.9607872 53.2200557,36.7795106 52.8805557,36.4214894 C48.6752824,31.983234 42.7634557,29.4997447 36.6434024,29.6054894 C35.6580979,29.590383 34.9021446,28.8607447 34.8855468,27.9060213 C34.868949,26.9512979 35.629429,26.1627447 36.5830468,26.1461277 C43.6672801,26.0524681 50.5161268,28.9015319 55.3868201,34.042234 C56.0431868,34.7341064 56.0145179,35.8293191 55.3219379,36.4879574 C54.9884735,36.8021702 54.5614579,36.9607872 54.1344424,36.9607872 L54.1344424,36.9607872 Z" id="Shape" fill="#FFFFFF" transform="translate(45.373061, 31.552338) scale(-1, 1) translate(-45.373061, -31.552338) "></path>
            <path d="M30.8431625,32.4923191 C30.416147,32.4923191 29.9891314,32.3352128 29.6541581,32.0179787 C29.0430581,31.4378936 28.949507,30.5164043 29.3870847,29.8320851 C29.2859892,28.9060638 27.6443181,25.9134894 23.8796403,22.3408298 C20.1149625,18.7681702 17.0443736,17.2847234 16.1148981,17.2318511 C15.4570225,17.7061915 14.5320736,17.6608723 13.9209736,17.0807872 C13.2283936,16.4236596 13.1982158,15.3284468 13.8545825,14.6350638 C15.0284981,13.3963404 16.9945803,13.4930213 19.6985092,14.9205745 C21.7158936,15.9855745 24.0441092,17.7288511 26.2576492,19.8301489 C28.4696803,21.9299362 30.3331581,24.1656809 31.502547,26.1264894 C33.0702825,28.755 33.2709647,30.7142979 32.0970492,31.9530213 C31.7575492,32.3110426 31.3018647,32.4923191 30.8431625,32.4923191 L30.8431625,32.4923191 Z" id="Shape" fill="#FFFFFF" transform="translate(23.115406, 23.132574) scale(-1, 1) translate(-23.115406, -23.132574) "></path>
            <path d="M94.201108,141.386681 L94.1769657,141.386681 C89.9249168,141.323234 85.8826035,139.673617 82.793908,136.741468 C79.6599457,133.767021 77.796468,129.753255 77.5459924,125.440383 C77.4992168,124.630681 78.0197835,123.896511 78.7983702,123.675957 C79.5256546,123.469 80.2936791,123.760553 80.7056057,124.376894 C81.992688,125.441894 84.0311968,125.324064 85.1870057,124.101957 L124.796848,82.2799362 C125.112206,81.9475957 125.546766,81.7527234 126.003959,81.7406383 C126.480768,81.7240213 126.906275,81.8992553 127.239739,82.2149787 L134.818888,89.4086383 C135.511468,90.065766 135.540137,91.1609787 134.88377,91.8543617 L95.273928,133.676383 C94.6688635,134.315383 94.3489791,135.150766 94.3731213,136.029957 C94.3957546,136.91066 94.7609057,137.727915 95.3976568,138.333681 C95.7824235,138.697745 95.9770702,139.218915 95.9287857,139.746128 C95.8488146,140.638915 95.0943702,141.386681 94.201108,141.386681 L94.201108,141.386681 Z M81.585288,128.479787 C82.2627791,130.653596 83.486488,132.631021 85.1719168,134.230787 C86.854328,135.827532 88.8928368,136.946915 91.0973235,137.508872 C90.9917013,137.058702 90.9298368,136.594936 90.9177657,136.122106 C90.8694813,134.318404 91.525848,132.60383 92.7661546,131.295617 L131.186992,90.7289362 L126.115617,85.9160426 L87.6947791,126.482723 C86.1466591,128.120255 83.7656324,128.878596 81.585288,128.479787 L81.585288,128.479787 Z" id="Shape" fill="#FFFFFF" transform="translate(106.450435, 111.563118) scale(-1, 1) translate(-106.450435, -111.563118) "></path>
            <path d="M50.3225703,85.2 C49.8955548,85.2 49.4685392,85.0428936 49.1335659,84.7256596 C48.4409859,84.0685319 48.412317,82.9733191 49.0686837,82.2799362 L74.6292615,55.292383 C78.4558037,51.2514255 81.5958015,47.0488298 83.4713503,43.4580426 C85.4661015,39.6376383 85.1492348,38.1330426 85.0028726,37.9940638 C84.3102926,37.3369362 84.2816237,36.2417234 84.9379903,35.5483404 C85.594357,34.8564681 86.6867926,34.8247447 87.3808815,35.483383 C89.2232348,37.2327021 88.9380548,40.453383 86.5328859,45.0593191 C84.5139926,48.9265532 81.1763303,53.4055957 77.1355259,57.6716383 L51.5749481,84.6591915 C51.236957,85.020234 50.7812726,85.2 50.3225703,85.2 L50.3225703,85.2 Z" id="Shape" fill="#FFFFFF" transform="translate(68.586353, 60.104386) scale(-1, 1) translate(-68.586353, -60.104386) "></path>
            <path d="M34.5671356,92.3951702 C34.14012,92.3951702 33.7131044,92.2380638 33.3781311,91.9208298 C32.6855511,91.2637021 32.6568822,90.1684894 33.3132489,89.4751064 L58.8723178,62.4875532 C66.5374733,54.3935532 76.5625311,47.3675745 80.4599911,51.065617 C81.1525711,51.7227447 81.18124,52.8179574 80.5248733,53.5113404 C79.8685067,54.2047234 78.7760711,54.2349362 78.0819822,53.5762979 C77.1660867,52.7046596 70.1723867,55.5839362 61.3800911,64.8683191 L35.8210222,91.8558723 C35.4815222,92.2138936 35.0243289,92.3951702 34.5671356,92.3951702 L34.5671356,92.3951702 Z" id="Shape" fill="#FFFFFF" transform="translate(56.919061, 71.224008) scale(-1, 1) translate(-56.919061, -71.224008) "></path>
            <polygon id="Path-2" fill="#48AE65" points="51.1 88.1364739 80.2566142 58.7586207 86.8 65.611086 57.0754963 94.4334975"></polygon>
            <path d="M90.4247535,68.9813821 C89.2783794,68.9813821 88.1320052,68.5341992 87.2722245,67.6443809 L78.7573794,58.8310869 C77.9428503,57.9867448 77.5024013,56.8710612 77.5205019,55.690195 C77.5370942,54.5093289 78.0092194,53.4072881 78.849391,52.5872001 L83.7033806,47.8500925 C84.38668,47.1846236 85.481769,47.1997823 86.1454594,47.8864735 C86.8106581,48.5746804 86.7940658,49.6736894 86.1092581,50.3406742 L81.2552684,55.0777818 C81.0154348,55.3127423 80.9747084,55.5931791 80.9732,55.7402189 C80.9701832,55.8872587 81.0018594,56.1707272 81.2356594,56.4102354 L89.7505045,65.2235294 C90.1064839,65.5918869 90.7128555,65.5979504 91.0778852,65.2432357 L95.9318748,60.5061281 C96.6151742,59.8391434 97.7102632,59.855818 98.3739535,60.5425091 C99.0391523,61.2307161 99.02256,62.3297251 98.3377523,62.9967098 L93.4837626,67.7338174 C92.6330323,68.5675484 91.5288929,68.9813821 90.4247535,68.9813821 L90.4247535,68.9813821 Z" id="Shape" fill="#FFFFFF"></path>
            <path d="M54.7167058,104.313383 C53.5175381,104.313383 52.3968065,103.838915 51.5641768,102.977898 L43.05084,94.1646041 C41.3644632,92.4183168 41.4051897,89.6184967 43.1413432,87.9222332 L46.0842065,85.051167 C46.7705226,84.3841823 47.8625948,84.4008569 48.5262852,85.087548 L60.753271,97.7450995 C61.4184697,98.4333065 61.4018774,99.5323155 60.7170697,100.1993 L57.7757148,103.068851 C56.9521355,103.870748 55.8660968,104.313383 54.7167058,104.313383 L54.7167058,104.313383 Z M47.2501897,88.7514165 L45.5472206,90.4128149 C45.182191,90.7690454 45.174649,91.3799428 45.5276116,91.7467844 L54.0409484,100.560078 C54.2792735,100.807166 54.5658671,100.843547 54.7151974,100.843547 C54.9625729,100.843547 55.1948645,100.749563 55.368329,100.579785 L57.0712981,98.9183864 L47.2501897,88.7514165 L47.2501897,88.7514165 Z" id="Shape" fill="#FFFFFF"></path>
            <path d="M21.6935871,136.53481 C20.492911,136.53481 19.3736877,136.060342 18.5410581,135.197809 L10.0262129,126.384515 C8.33832774,124.638228 8.38056258,121.836892 10.1182245,120.142144 L13.0595794,117.271078 C13.3884077,116.949713 13.82584,116.796609 14.2889148,116.779935 C14.7459561,116.785998 15.1833884,116.976999 15.5016581,117.305943 L27.7286439,129.963495 C28.3938426,130.651702 28.3772503,131.750711 27.6924426,132.417696 L24.7510877,135.288762 C23.9290168,136.092175 22.8429781,136.53481 21.6935871,136.53481 L21.6935871,136.53481 Z M14.227071,120.971328 L12.5241019,122.632726 C12.1590723,122.988957 12.1500219,123.599854 12.5044929,123.966696 L21.0193381,132.77999 C21.2561548,133.027077 21.5427484,133.063458 21.6935871,133.063458 C21.9409626,133.063458 22.1732542,132.969474 22.3467187,132.799696 L24.0496877,131.138298 L14.227071,120.971328 L14.227071,120.971328 Z" id="Shape" fill="#FFFFFF"></path>
            <path d="M57.0169961,97.0068687 C55.9143652,97.0068687 54.8886619,96.5718127 54.1254181,95.7805263 L49.7963471,91.2996014 C49.0481871,90.5249896 48.6454477,89.5017744 48.6605316,88.4179241 C48.6756155,87.3340739 49.1085226,86.3245015 49.8793084,85.5726278 L77.6321226,58.4945628 C79.1736942,56.9908153 81.8359974,57.0317439 83.330809,58.5794517 L87.65988,63.0603766 C88.40804,63.8349884 88.8107794,64.8582036 88.7956955,65.9420539 C88.7791032,67.0259041 88.3461961,68.0354765 87.5754103,68.7873502 L59.8241045,95.8654152 C59.0684026,96.6021302 58.0728671,97.0068687 57.0169961,97.0068687 L57.0169961,97.0068687 Z M80.038,60.9851445 L52.2851858,88.0632095 C52.1388723,88.2057017 52.1147381,88.3785114 52.1132297,88.4694639 C52.1117213,88.5604163 52.1313303,88.733226 52.2746271,88.8817817 L56.6036981,93.3627065 C56.7485032,93.5127781 56.9249845,93.5355162 57.0169961,93.5355162 C57.1044826,93.5355162 57.2749303,93.514294 57.4167187,93.3748335 L85.1680245,66.2967685 C85.3143381,66.1542763 85.3384723,65.9799507 85.3399806,65.8905141 C85.341489,65.7995617 85.32188,65.626752 85.1800916,65.4797122 L80.8510206,60.9972715 C80.7062155,60.8471999 80.5297342,60.8244618 80.4377226,60.8244618 C80.3502361,60.8244618 80.1797884,60.845684 80.038,60.9851445 Z" id="Shape" fill="#FFFFFF"></path>
            <path d="M26.4450065,131.68856 L26.377129,131.68856 C25.2020955,131.670369 24.1054981,131.195901 23.290969,130.353075 L15.0008735,121.773225 C13.3144968,120.026938 13.3552232,117.227118 15.0913768,115.530854 L39.2391458,91.9696179 C39.9224452,91.3011173 41.0175342,91.3193078 41.6812245,92.0059989 C42.3464232,92.6942059 42.329831,93.7932149 41.6450232,94.4601996 L17.4972542,118.021436 C17.1322245,118.377666 17.1246826,118.988564 17.4776452,119.355406 L25.7677406,127.935255 C26.0000323,128.176279 26.2805923,128.215692 26.4284142,128.218723 C26.5943368,128.220239 26.8552877,128.189922 27.0951213,127.956477 L51.2428903,104.395241 C51.9261897,103.72674 53.0212787,103.744931 53.684969,104.431622 C54.3501677,105.119829 54.3335755,106.218838 53.6487677,106.885822 L29.5009987,130.447059 C28.6789277,131.248956 27.5959058,131.68856 26.4450065,131.68856 L26.4450065,131.68856 Z" id="Shape" fill="#FFFFFF"></path>
            <path d="M91.3433613,18.9651051 C90.9270465,18.9651051 90.5107316,18.8150335 90.1788865,18.5118586 C89.4744697,17.8645802 89.4262013,16.7670871 90.0687742,16.0591738 C93.8834852,11.8602016 98.7872516,8.90121469 104.252138,7.49903084 C105.178288,7.26255443 106.116505,7.82342797 106.353321,8.752659 C106.58863,9.68189003 106.032035,10.6262798 105.107394,10.8642721 C100.298655,12.096678 95.9801432,14.7024662 92.6209652,18.3996839 C92.2770529,18.7756208 91.8109613,18.9651051 91.3433613,18.9651051 L91.3433613,18.9651051 Z" id="Shape" fill="#FFFFFF"></path>
            <path d="M84.5284684,41.1044512 C83.6807548,41.1044512 82.9401368,40.4768792 82.8209742,39.609799 C82.4649948,37.0661617 82.4514194,34.4740164 82.7787394,31.907641 C83.1120929,29.2745671 83.7999174,26.7097076 84.8195871,24.2843085 C85.1921587,23.4020696 86.2042865,22.98672 87.0836761,23.3611409 C87.9615574,23.7340461 88.3733471,24.7527137 88.0022839,25.6364685 C87.1047935,27.7708197 86.4999303,30.0279567 86.2073032,32.3472446 C85.9192013,34.6089293 85.9312684,36.8888044 86.2435045,39.127751 C86.3762426,40.0766884 85.7170774,40.9543797 84.7728271,41.0877766 C84.6898658,41.0983877 84.6084129,41.1044512 84.5284684,41.1044512 L84.5284684,41.1044512 Z" id="Shape" fill="#FFFFFF"></path>
            <path d="M98.4916077,61.2777082 C98.2140645,61.2777082 97.9335045,61.2110097 97.6725535,61.0685176 C92.6390658,58.3353959 88.5573703,54.1925111 85.8739497,49.0885619 C85.4289755,48.2411881 85.7502619,47.1906871 86.5934503,46.7419883 C87.4366387,46.2932894 88.481951,46.6176865 88.9284335,47.4650604 C91.2920761,51.9596281 94.8835458,55.606822 99.3151871,58.0125147 C100.15385,58.4687929 100.467595,59.5208098 100.01357,60.3651518 C99.6998258,60.9472476 99.1055213,61.2777082 98.4916077,61.2777082 L98.4916077,61.2777082 Z" id="Shape" fill="#FFFFFF"></path>
            <path d="M111.373234,64.53987 C110.154457,64.53987 108.932663,64.4625604 107.716903,64.3064253 C106.769636,64.1851554 106.101421,63.3165593 106.222092,62.3645902 C106.342763,61.412621 107.208577,60.7395728 108.154335,60.8623586 C112.475865,61.4141369 116.87583,60.8441681 120.883614,59.2100555 C121.773563,58.8507932 122.77664,59.2782698 123.134128,60.1665723 C123.493124,61.0548747 123.067759,62.0674788 122.183844,62.4282569 C118.75528,63.8258932 115.076324,64.53987 111.373234,64.53987 L111.373234,64.53987 Z" id="Shape" fill="#FFFFFF"></path>
            <path d="M129.136,57.8669907 C128.651808,57.8669907 128.172141,57.6638636 127.831245,57.2682203 C127.206773,56.5451482 127.283701,55.4476551 128.003201,54.8200831 C131.602213,51.6807072 134.238874,47.6121002 135.623573,43.0523499 C135.901116,42.1352458 136.867992,41.6198485 137.780566,41.8987694 C138.693141,42.1792062 139.205992,43.1493658 138.926941,44.064954 C137.352185,49.2477287 134.356528,53.8741775 130.26729,57.4395141 C129.93997,57.7275303 129.535723,57.8669907 129.136,57.8669907 L129.136,57.8669907 Z" id="Shape" fill="#FFFFFF"></path>
            <path d="M138.447274,36.3825024 C137.519615,36.3825024 136.753355,35.6427556 136.721679,34.7044294 C136.560281,29.7475199 134.964408,24.9740313 132.106014,20.897845 C131.556961,20.1141379 131.744001,19.0318036 132.523837,18.4800253 C133.302165,17.9297628 134.38217,18.1146995 134.931223,18.8999225 C138.177272,23.5309189 139.991862,28.9577494 140.174377,34.5922546 C140.206053,35.5502873 139.457893,36.3521849 138.504592,36.3840182 C138.484983,36.3825024 138.466883,36.3825024 138.447274,36.3825024 L138.447274,36.3825024 Z" id="Shape" fill="#FFFFFF"></path>
            <path d="M127.463199,15.404316 C127.105711,15.404316 126.745206,15.2936572 126.435987,15.0632443 C122.975747,12.4908054 118.875951,10.8385022 114.577048,10.2882398 C114.000844,10.213962 113.426148,10.1593905 112.852961,10.1260412 C111.901169,10.068438 111.175635,9.24683406 111.232954,8.28880142 C111.290272,7.33228465 112.056533,6.60921254 113.05961,6.6592364 C113.708217,6.69864914 114.35984,6.75928411 115.01448,6.84417308 C119.895621,7.47022922 124.555028,9.34839765 128.49041,12.2725194 C129.256671,12.8424882 129.418068,13.9293702 128.850915,14.6994344 C128.514545,15.1617761 127.992643,15.404316 127.463199,15.404316 L127.463199,15.404316 Z" id="Shape" fill="#FFFFFF"></path>
            <path d="M99.7767535,69.0859774 C99.5761381,69.0859774 99.3755226,69.0511123 99.182449,68.9798662 C98.6032284,68.7661279 98.18088,68.25831 98.0752929,67.6474126 L95.2470671,51.3047703 L79.075649,47.9804577 C78.4722942,47.856156 77.9775432,47.4165524 77.7829613,46.8283931 C77.586871,46.2402338 77.719609,45.5914396 78.1298903,45.127582 L89.0792723,32.7156021 L81.5840968,17.9373422 C81.3035368,17.384048 81.3382297,16.7246427 81.6746,16.2031819 C82.0094619,15.6832369 82.5705819,15.3815779 83.2131548,15.4149271 L99.6983174,16.2789756 L106.520752,1.17480269 C106.77567,0.610897398 107.311147,0.224349417 107.926569,0.165230314 C108.543499,0.103079462 109.139312,0.378968609 109.498308,0.882238922 L119.103717,14.3735214 L135.107705,10.3170414 C135.709551,10.1669698 136.338548,10.345843 136.769947,10.7915101 C137.199837,11.2356613 137.359726,11.8783921 137.192295,12.4741307 L132.685235,28.4302251 L145.818761,38.4774408 C146.310495,38.8518618 146.563905,39.4627592 146.486977,40.0782042 C146.408541,40.6936492 146.010326,41.2196577 145.440156,41.4591658 L130.216005,47.868283 L130.590085,64.4519493 C130.603661,65.0719419 130.286899,65.6525218 129.760472,65.9754031 C129.234045,66.2982844 128.57488,66.3134431 128.033369,66.0148158 L113.554361,58.0473798 L100.886926,68.681239 C100.567148,68.946517 100.174968,69.0859774 99.7767535,69.0859774 L99.7767535,69.0859774 Z M99.0210516,52.8600575 L100.963854,64.0896553 L109.668756,56.7831405 L99.0210516,52.8600575 L99.0210516,52.8600575 Z M117.117172,56.052489 L127.066493,61.5263116 L126.808559,50.1299676 L117.117172,56.052489 L117.117172,56.052489 Z M97.873169,48.7399108 L113.196874,54.3850272 L127.141912,45.8658128 L129.208403,29.5989642 L117.839689,17.8327469 L101.597377,19.4274468 L92.7114684,33.1840073 L97.873169,48.7399108 L97.873169,48.7399108 Z M82.6972865,45.1821535 L93.8095742,47.4665762 L90.2211213,36.6538439 L82.6972865,45.1821535 L82.6972865,45.1821535 Z M132.318697,32.5170225 L130.881204,43.82393 L141.343377,39.4203147 L132.318697,32.5170225 L132.318697,32.5170225 Z M86.0187548,19.0393829 L91.1698968,29.1957416 L97.3452335,19.6351216 L86.0187548,19.0393829 L86.0187548,19.0393829 Z M122.051106,17.2066907 L129.952037,25.3848333 L133.048756,14.4189976 L122.051106,17.2066907 L122.051106,17.2066907 Z M108.427354,5.34952089 L103.737778,15.7287132 L115.026547,14.6206089 L108.427354,5.34952089 L108.427354,5.34952089 Z" id="Shape" fill="#FFFFFF"></path>
            <path d="M117.059853,44.2044144 L117.03421,44.2044144 L103.737778,44.0073508 C103.280737,44.0012873 102.843305,43.8102871 102.525035,43.4813423 C102.205257,43.1508817 102.030284,42.7067305 102.036317,42.2474205 L102.232408,28.8849874 C102.247492,27.9345341 103.016769,27.175081 103.959511,27.175081 L103.985154,27.175081 L117.281586,27.3721447 C117.738627,27.3782082 118.176059,27.5692084 118.494329,27.8981531 C118.814107,28.2286138 118.98908,28.672765 118.983046,29.1320749 L118.786956,42.4945081 C118.773381,43.4449614 118.002595,44.2044144 117.059853,44.2044144 L117.059853,44.2044144 Z M105.516166,40.5617682 L115.358392,40.7072921 L115.503197,30.8162114 L105.660972,30.6706875 L105.516166,40.5617682 L105.516166,40.5617682 Z" id="Shape" fill="#FFFFFF"></path>
            <path d="M110.510436,37.425424 C110.059428,37.425424 109.609929,37.2495825 109.27205,36.8994155 L102.722634,30.1204251 C102.057435,29.4322181 102.074027,28.3332091 102.758835,27.6662243 C103.442134,26.9992396 104.537223,27.0159142 105.200914,27.7026053 L111.75033,34.4815958 C112.415529,35.1698028 112.398937,36.2688118 111.714129,36.9357965 C111.377759,37.2617095 110.944852,37.425424 110.510436,37.425424 L110.510436,37.425424 Z" id="Shape" fill="#FFFFFF"></path>
            <path d="M28.5989832,114.101385 C28.1479755,114.101385 27.6984761,113.925543 27.359089,113.575376 C26.6938903,112.887169 26.7104826,111.78816 27.3952903,111.121176 L45.1248723,93.8220165 C45.8081716,93.1535159 46.9032606,93.1717064 47.566951,93.8583975 C48.2321497,94.5466045 48.2155574,95.6456134 47.5307497,96.3125982 L29.8011677,113.611757 C29.4678142,113.93767 29.0333987,114.101385 28.5989832,114.101385 L28.5989832,114.101385 Z" id="Shape" fill="#FFFFFF"></path>
            <text id="NETGURU" font-family="BarlowSemiCondensed-Bold, Barlow Semi Condensed" font-size="60" font-style="condensed" font-weight="bold" letter-spacing="-2.20000005" fill="#FFFFFF">
                <tspan x="179.11" y="67">NETGUR</tspan>
                <tspan x="359.65" y="67">U</tspan>
            </text>
            <text id="DUEL" font-family="BarlowSemiCondensed-Bold, Barlow Semi Condensed" font-size="60" font-style="condensed" font-weight="bold" letter-spacing="-2.20000005" fill="#FFFFFF">
                <tspan x="179.16" y="118">DUEL</tspan>
            </text>
            <text id="hackathon-edition" font-family="BarlowSemiCondensed-Regular, Barlow Semi Condensed" font-size="17.9712" font-style="condensed" font-weight="500" line-spacing="15.57504" letter-spacing="-0.658944058" fill="#FFFFFF">
                <tspan x="309" y="99">hackathon </tspan>
                <tspan x="309" y="114.57504">edition</tspan>
            </text>
        </g>
    </g>
</svg>