<?xml version="1.0" standalone="no"?>
<!DOCTYPE svg PUBLIC "-//W3C//DTD SVG 20010904//EN"
 "http://www.w3.org/TR/2001/REC-SVG-20010904/DTD/svg10.dtd">
<svg version="1.0" xmlns="http://www.w3.org/2000/svg"
 width="318.000000pt" height="318.000000pt" viewBox="0 0 318.000000 318.000000"
 preserveAspectRatio="xMidYMid meet">
<metadata>
Created by potrace 1.11, written by Peter Selinger 2001-2013
</metadata>
<g transform="translate(0.000000,318.000000) scale(0.100000,-0.100000)"
fill="#000000" stroke="none">
<path d="M70 3163 c-20 -10 -43 -33 -53 -53 -16 -33 -17 -122 -15 -1537 l3
-1503 33 -32 32 -33 1520 0 1520 0 32 33 33 32 0 1520 0 1520 -33 32 -32 33
-1503 3 c-1415 2 -1504 1 -1537 -15z m2034 -550 c8 -10 26 -32 40 -49 19 -24
37 -33 71 -38 25 -4 71 -21 102 -37 54 -28 59 -29 110 -18 72 16 81 7 61 -63
-15 -52 -14 -54 14 -113 15 -33 31 -82 34 -108 6 -42 12 -52 50 -79 59 -42 57
-61 -9 -88 -46 -19 -55 -28 -71 -68 -11 -25 -39 -70 -64 -100 -41 -50 -44 -58
-39 -97 4 -28 2 -49 -7 -60 -13 -18 -16 -17 -61 10 -46 26 -50 27 -101 16 -30
-7 -81 -11 -113 -10 -56 2 -63 0 -105 -34 -48 -40 -76 -41 -76 -3 0 37 -12 38
-47 5 -24 -24 -41 -32 -66 -31 -28 1 -42 -7 -80 -46 l-46 -47 341 -358 c290
-306 344 -358 362 -352 70 22 69 22 64 -29 -12 -99 -104 -192 -202 -203 -37
-5 -47 -2 -52 11 -4 10 -2 22 5 29 34 34 27 43 -608 710 l-55 58 -83 -83 c-54
-54 -79 -86 -73 -92 6 -6 10 -17 10 -25 0 -21 -60 -81 -82 -81 -11 0 -18 -7
-18 -19 0 -11 -88 -103 -219 -230 -163 -157 -225 -211 -243 -211 -38 0 -178
148 -178 187 0 26 30 59 217 239 129 125 224 209 235 208 12 0 18 6 18 21 0
11 16 36 35 55 30 29 39 33 54 23 16 -10 29 0 101 72 l83 83 -74 81 c-139 154
-269 242 -294 200 -4 -6 -1 -40 5 -75 16 -85 10 -92 -65 -77 -99 21 -183 70
-271 158 -91 90 -135 169 -159 283 -19 89 -11 98 65 72 80 -28 106 -26 115 8
16 66 141 191 209 208 36 9 40 23 26 81 -25 105 -26 103 8 103 42 0 150 -40
218 -81 118 -71 227 -227 255 -365 17 -82 10 -99 -39 -89 -20 4 -57 8 -82 9
-40 1 -45 -1 -42 -19 9 -56 72 -146 197 -280 l74 -80 45 45 c36 34 46 51 46
77 0 22 10 43 30 66 17 19 30 37 30 40 0 2 -13 7 -30 11 -39 7 -38 27 5 75 32
35 35 44 35 98 0 33 7 83 15 111 15 50 15 53 -10 101 -34 68 -27 81 46 81 52
0 64 4 106 36 27 21 70 46 96 57 43 18 52 27 72 74 25 57 37 63 59 36z"/>
<path d="M1024 2468 c1 -70 -3 -92 -25 -138 -54 -114 -159 -184 -279 -185 -36
0 -77 3 -93 8 -26 7 -27 6 -21 -20 3 -16 21 -61 40 -101 47 -103 133 -190 237
-242 112 -56 114 -56 114 34 0 190 149 328 338 313 l72 -5 -9 41 c-29 129
-147 277 -269 335 -111 53 -106 55 -105 -40z m306 -223 c17 -21 6 -32 -42 -39
-75 -12 -134 -36 -177 -72 -41 -35 -71 -40 -71 -10 0 16 58 69 100 91 34 18
125 43 156 44 12 1 27 -6 34 -14z m-316 -182 c8 -20 -11 -43 -35 -43 -25 0
-36 40 -14 56 20 15 41 9 49 -13z"/>
<path d="M2056 2481 c-14 -32 -26 -61 -26 -65 0 -8 64 -7 113 2 l37 7 -41 58
c-22 31 -44 57 -48 57 -5 0 -20 -26 -35 -59z"/>
<path d="M2210 2472 c1 -17 29 -42 46 -42 46 1 46 18 0 33 -25 9 -46 13 -46 9z"/>
<path d="M1935 2425 l-40 -24 36 -1 c29 0 38 5 47 25 14 31 7 31 -43 0z"/>
<path d="M2353 2402 c-35 -8 -63 -18 -63 -22 0 -3 24 -29 53 -59 l54 -52 18
62 c9 35 19 69 22 76 6 16 -4 15 -84 -5z"/>
<path d="M923 2360 c-41 -25 -110 -96 -129 -132 l-15 -29 38 16 c62 26 151
125 141 156 -2 5 -17 0 -35 -11z"/>
<path d="M2064 2360 c-33 -4 -65 -9 -71 -13 -16 -10 -123 -183 -123 -199 0 -7
15 -59 33 -113 l34 -100 109 -41 109 -42 35 21 c19 11 65 39 101 63 l66 42 12
89 c18 147 21 139 -67 226 -86 86 -83 85 -238 67z m171 -240 l0 -115 -115 0
-115 0 -3 104 c-1 58 0 111 2 118 4 11 31 13 118 11 l113 -3 0 -115z"/>
<path d="M2113 2162 c15 -15 27 -36 27 -45 0 -25 -30 -21 -62 10 l-28 27 0
-52 0 -52 70 0 70 0 0 70 0 70 -52 0 -52 0 27 -28z"/>
<path d="M1805 2290 c20 -40 40 -69 45 -64 4 5 24 35 44 67 l37 57 -43 0 c-24
0 -60 3 -81 7 l-39 6 37 -73z"/>
<path d="M2445 2257 c-7 -27 15 -67 36 -67 9 0 -4 49 -19 77 -9 16 -11 15 -17
-10z"/>
<path d="M1777 2191 c-4 -19 -7 -43 -7 -54 l0 -21 22 22 c21 20 21 23 7 54
l-16 32 -6 -33z"/>
<path d="M2425 2113 c-3 -27 -9 -60 -11 -75 -3 -16 -2 -28 3 -28 14 0 133 53
133 59 -1 6 -79 68 -106 84 -9 5 -14 -5 -19 -40z"/>
<path d="M1775 2045 c-26 -31 -46 -57 -44 -59 6 -5 143 -35 146 -32 4 4 -38
129 -47 139 -4 4 -28 -17 -55 -48z"/>
<path d="M1173 2050 c-31 -18 -62 -47 -82 -76 -35 -53 -38 -64 -16 -64 52 0
187 -101 294 -219 40 -45 78 -81 85 -81 7 0 25 14 41 30 l29 30 -35 38 c-166
176 -232 266 -245 331 -4 17 -10 33 -13 36 -4 2 -30 -9 -58 -25z"/>
<path d="M2428 1958 c-23 -8 -28 -16 -28 -45 l0 -36 19 24 c18 24 44 70 39 68
-2 0 -15 -5 -30 -11z"/>
<path d="M1732 1877 c-18 -18 -32 -37 -32 -43 0 -13 123 -134 136 -134 5 0 25
15 43 34 l34 35 -29 25 c-16 14 -32 26 -35 26 -3 0 -20 20 -39 45 -19 25 -36
45 -40 45 -3 0 -20 -15 -38 -33z"/>
<path d="M1856 1885 c9 -14 26 -31 37 -36 18 -10 19 -9 13 17 -4 16 -8 29 -9
30 -1 1 -15 4 -30 8 l-28 7 17 -26z"/>
<path d="M2283 1872 c-35 -21 -63 -39 -63 -42 0 -8 121 -73 126 -67 3 2 4 36
2 75 l-3 70 -62 -36z"/>
<path d="M1960 1850 c0 -21 20 -123 26 -129 2 -2 28 18 59 44 31 27 52 51 48
55 -8 6 -120 50 -129 50 -2 0 -4 -9 -4 -20z"/>
<path d="M2138 1780 l-23 -19 42 -1 c49 0 62 13 28 28 -20 9 -28 8 -47 -8z"/>
<path d="M1487 1567 c-108 -106 -197 -196 -197 -202 0 -5 14 -24 32 -42 l31
-32 203 196 203 195 -32 39 c-18 21 -34 39 -37 38 -3 0 -94 -86 -203 -192z"/>
<path d="M1630 1485 l-34 -35 39 -40 39 -40 36 35 35 35 -41 40 -40 40 -34
-35z"/>
<path d="M1741 1366 l-33 -34 264 -279 c296 -312 308 -326 308 -359 0 -13 6
-24 13 -24 23 0 87 50 103 81 18 35 19 33 -21 46 -20 6 -124 108 -310 304
-154 162 -282 295 -285 297 -3 1 -21 -13 -39 -32z"/>
<path d="M1202 1348 c-20 -20 -14 -31 53 -98 62 -61 66 -63 82 -47 17 16 14
21 -53 87 -55 56 -72 68 -82 58z"/>
<path d="M968 1120 c-98 -97 -178 -180 -178 -186 0 -5 29 -38 64 -73 l65 -64
184 174 184 174 -43 45 -44 44 -118 -117 c-65 -64 -126 -117 -134 -117 -42 0
-20 34 94 148 89 87 118 123 112 133 -7 11 -52 -29 -186 -161z"/>
<path d="M732 888 c-20 -20 -14 -31 53 -98 57 -56 67 -62 79 -50 12 13 5 24
-53 87 -52 56 -70 70 -79 61z"/>
</g>
</svg>
